HIERARCHY
ROOT Hips
{
  OFFSET 28.0063 39.5055 21.0673
  CHANNELS 6 Xposition Yposition Zposition Zrotation Xrotation Yrotation
  JOINT LeftHip
  {
    OFFSET 3.43 3.62798e-014 -8.79301e-012
    CHANNELS 6 Xposition Yposition Zposition Zrotation Xrotation Yrotation
    JOINT LeftKnee
    {
      OFFSET -1.06581e-014 -18.47 9.76996e-015
      CHANNELS 6 Xposition Yposition Zposition Zrotation Xrotation Yrotation
      JOINT LeftAnkle
      {
        OFFSET 3.87854e-012 -17.95 -4.13959e-012
        CHANNELS 6 Xposition Yposition Zposition Zrotation Xrotation Yrotation
        End Site
        {
          OFFSET 0 -3.12 0
        }
      }
    }
  }
  JOINT RightHip
  {
    OFFSET -3.43 2.76147e-013 1.18857e-012
    CHANNELS 6 Xposition Yposition Zposition Zrotation Xrotation Yrotation
    JOINT RightKnee
    {
      OFFSET 2.17336e-013 -18.47 8.04946e-013
      CHANNELS 6 Xposition Yposition Zposition Zrotation Xrotation Yrotation
      JOINT RightAnkle
      {
        OFFSET -3.96733e-012 -17.95 0
        CHANNELS 6 Xposition Yposition Zposition Zrotation Xrotation Yrotation
        End Site
        {
          OFFSET 0 -3.12 0
        }
      }
    }
  }
  JOINT Chest
  {
    OFFSET 2.47406e-012 4.57 1.72521e-013
    CHANNELS 6 Xposition Yposition Zposition Zrotation Xrotation Yrotation
    JOINT Chest2
    {
      OFFSET 3.55271e-015 6.57 -6.21725e-015
      CHANNELS 6 Xposition Yposition Zposition Zrotation Xrotation Yrotation
      JOINT LeftCollar
      {
        OFFSET 1.06 4.19 1.76
        CHANNELS 6 Xposition Yposition Zposition Zrotation Xrotation Yrotation
        JOINT LeftShoulder
        {
          OFFSET 5.81 5.61587e-013 -8.88178e-016
          CHANNELS 6 Xposition Yposition Zposition Zrotation Xrotation Yrotation
          JOINT LeftElbow
          {
            OFFSET -5.68434e-014 -12.08 -3.20035e-012
            CHANNELS 6 Xposition Yposition Zposition Zrotation Xrotation Yrotation
            JOINT LeftWrist
            {
              OFFSET 1.42109e-014 -9.82 -5.32907e-015
              CHANNELS 6 Xposition Yposition Zposition Zrotation Xrotation Yrotation
              End Site
              {
                OFFSET 0 -7.37 0
              }
            }
          }
        }
      }
      JOINT RightCollar
      {
        OFFSET -1.06 4.19 1.76
        CHANNELS 6 Xposition Yposition Zposition Zrotation Xrotation Yrotation
        JOINT RightShoulder
        {
          OFFSET -6.06 -2.83051e-012 -8.88178e-016
          CHANNELS 6 Xposition Yposition Zposition Zrotation Xrotation Yrotation
          JOINT RightElbow
          {
            OFFSET -2.84217e-014 -11.08 2.79018e-015
            CHANNELS 6 Xposition Yposition Zposition Zrotation Xrotation Yrotation
            JOINT RightWrist
            {
              OFFSET 7.10543e-015 -9.82 -2.66454e-015
              CHANNELS 6 Xposition Yposition Zposition Zrotation Xrotation Yrotation
              End Site
              {
                OFFSET 0 -7.14001 0
              }
            }
          }
        }
      }
      JOINT Neck
      {
        OFFSET 2.13163e-014 4.05 4.44089e-015
        CHANNELS 6 Xposition Yposition Zposition Zrotation Xrotation Yrotation
        JOINT Head
        {
          OFFSET -3.55271e-015 5.19 3.55271e-015
          CHANNELS 6 Xposition Yposition Zposition Zrotation Xrotation Yrotation
          End Site
          {
            OFFSET 0 4.14001 0
          }
        }
      }
    }
  }
}
MOTION
Frames:	8
Frame Time:	0.0333333
17.8509 39.4534 -7.21503 0.593757 0.00569829 -0.426246 3.43 -2.52162e-013 -4.37303e-017 3.4457 -6.6155 1.26068 -1.06581e-014 -18.47 9.76996e-015 0.776836 16.6283 5.83114 -1.06545e-014 -17.95 5.33127e-015 -5.72178 -9.36419 -0.469003 -3.43 4.80171e-014 -3.0032e-017 -6.73537 -4.37142 -7.49469 -1.06283e-014 -18.47 3.61201e-015 -1.00583 15.4355 -4.2636 1.74045e-015 -17.95 0 7.37322 -9.71357 0.627366 -3.56665e-014 4.57 -6.67596e-017 -0.223242 -0.308008 0.418478 3.55271e-015 6.57 -6.21725e-015 -0.23434 -0.299118 0.362242 1.06 4.19 1.76 9.21756 0.555978 2.6505 5.81 4.28204e-014 -8.88178e-016 98.6418 -1.04869 8.89366 -5.68434e-014 -12.08 -2.23497e-014 -10.3626 -2.21297 -15.1144 1.42109e-014 -9.82 -5.32907e-015 0.345629 -1.74804 0.00527516 -1.06 4.19 1.76 -10.7165 0.606018 -3.43264 -6.06 2.20381e-014 -8.88178e-016 -90.2622 5.04973 -11.2697 -2.84217e-014 -11.08 7.0244e-015 4.43744 -0.0576257 13.2024 7.10543e-015 -9.82 -2.66454e-015 -0.391857 -1.22397 -0.00419111 2.13163e-014 4.05 4.44089e-015 -0.288401 15.4847 -0.0214931 -3.55271e-015 5.19 3.55271e-015 0.429068 -2.58164 -0.287479 
17.8517 39.4588 -7.21364 0.598533 0.00274715 -0.462705 3.43 -1.70869e-013 -3.81494e-016 3.42989 -6.54465 1.2647 -1.06581e-014 -18.47 9.76996e-015 0.765851 16.5091 5.93875 -1.0661e-014 -17.95 5.35466e-015 -5.71237 -9.30568 -0.465292 -3.43 9.71445e-014 -4.67036e-016 -6.7132 -4.29643 -7.45484 -1.03204e-014 -18.47 3.9383e-015 -1.04009 15.2903 -4.15632 1.48069e-015 -17.95 0 7.36946 -9.65986 0.623562 -1.35103e-013 4.57 -3.71517e-016 -0.2682 -0.317167 0.387839 3.55271e-015 6.57 -6.21725e-015 -0.272905 -0.307483 0.330985 1.06 4.19 1.76 9.35302 0.559722 2.70783 5.81 2.42301e-013 -8.88178e-016 98.5377 -1.00579 8.84637 -5.68434e-014 -12.08 -1.99271e-014 -10.3555 -2.21541 -14.9467 1.42109e-014 -9.82 -5.32907e-015 0.461673 -1.78691 0.00711576 -1.06 4.19 1.76 -10.3914 0.594624 -3.29944 -6.06 2.62429e-014 -8.88178e-016 -90.6553 5.05658 -11.1438 -2.84217e-014 -11.08 5.93329e-015 4.51773 -0.0210019 13.1557 7.10543e-015 -9.82 -2.66454e-015 -0.422793 -1.2407 -0.00458743 2.13163e-014 4.05 4.44089e-015 -0.219057 15.4905 0.0110876 -3.55271e-015 5.19 3.55271e-015 0.357987 -2.57187 -0.210431 
17.8529 39.4567 -7.21172 0.584954 -0.0118559 -0.468502 3.43 -7.47735e-014 -9.7902e-016 3.45546 -6.56423 1.29192 -1.06581e-014 -18.47 9.76996e-015 0.751207 16.5774 5.91852 -1.07011e-014 -17.95 5.40123e-015 -5.70652 -9.34023 -0.466551 -3.43 -1.90681e-013 -1.408e-015 -6.7199 -4.3022 -7.4773 -9.71306e-015 -18.47 4.40616e-015 -1.01546 15.3261 -4.14948 1.03835e-015 -17.95 0 7.35998 -9.67228 0.623563 -1.91418e-013 4.57 -7.36242e-016 -0.364598 -0.355179 0.307359 3.55271e-015 6.57 -6.21725e-015 -0.354134 -0.34233 0.250425 1.06 4.19 1.76 9.75103 0.566369 2.82225 5.81 3.57696e-013 -8.88178e-016 98.2776 -0.95227 8.86195 -5.68434e-014 -12.08 -1.55946e-014 -10.2956 -2.2146 -15.2976 1.42109e-014 -9.82 -5.32907e-015 0.155881 -1.9774 0.00272765 -1.06 4.19 1.76 -9.71855 0.582829 -3.14503 -6.06 3.24704e-014 -8.88178e-016 -91.2647 4.94842 -11.2082 -2.84217e-014 -11.08 3.63717e-015 4.55243 0.00208524 13.244 7.10543e-015 -9.82 -2.66454e-015 -0.367673 -1.14199 -0.00366808 2.13163e-014 4.05 4.44089e-015 0.100905 15.6039 -0.030177 -3.55271e-015 5.19 3.55271e-015 0.0158311 -2.67637 -0.038569 
17.8521 39.4527 -7.21148 0.567736 -0.0458015 -0.477331 3.43 1.2218e-013 -1.83526e-015 3.47353 -6.5575 1.28583 -1.06581e-014 -18.47 9.76996e-015 0.778527 16.6664 5.80335 -1.07747e-014 -17.95 5.47074e-015 -5.72342 -9.40948 -0.471415 -3.43 7.61613e-014 -2.84888e-015 -6.69284 -4.31862 -7.45936 -8.80934e-015 -18.47 5.01426e-015 -1.02964 15.4163 -4.19736 4.17652e-016 -17.95 0 7.37121 -9.70872 0.62688 -2.46206e-013 4.57 -1.16042e-015 -0.287912 -0.323914 0.39435 3.55271e-015 6.57 -6.21725e-015 -0.291433 -0.313685 0.335301 1.06 4.19 1.76 9.60818 0.569135 2.84285 5.81 4.71246e-013 -8.88178e-016 98.1924 -1.11811 9.11719 -5.68434e-014 -12.08 -9.42374e-015 -10.2326 -2.20769 -15.4578 1.42109e-014 -9.82 -5.32907e-015 0.0979686 -1.98473 0.00168623 -1.06 4.19 1.76 -10.2374 0.594699 -3.29798 -6.06 4.06065e-014 -8.88178e-016 -90.8013 5.04489 -11.3336 -2.84217e-014 -11.08 1.65618e-016 4.44955 0.00067288 13.4017 7.10543e-015 -9.82 -2.66454e-015 -0.291322 -1.24208 -0.00310646 2.13163e-014 4.05 4.44089e-015 -0.0812764 15.5338 -0.0974679 -3.55271e-015 5.19 3.55271e-015 0.112731 -2.4628 -0.208943 
17.8497 39.4619 -7.2138 0.589418 -0.0328653 -0.474864 3.43 2.20046e-013 -2.94918e-015 3.43598 -6.47197 1.26565 -1.06581e-014 -18.47 9.76996e-015 0.777682 16.4424 5.93343 -1.08814e-014 -17.95 5.56297e-015 -5.7178 -9.27567 -0.464227 -3.43 2.82147e-013 -4.78563e-015 -6.68389 -4.24003 -7.4384 -7.61219e-015 -18.47 5.76128e-015 -1.05686 15.2171 -4.19158 -3.77159e-016 -17.95 0 7.37132 -9.60714 0.620298 -2.99406e-013 4.57 -1.64355e-015 -0.397536 -0.41405 0.396735 3.55271e-015 6.57 -6.21725e-015 -0.390735 -0.395973 0.328819 1.06 4.19 1.76 10.1027 0.552788 2.69697 5.81 5.82962e-013 -8.88178e-016 97.7816 -1.00689 8.93754 -5.68434e-014 -12.08 -1.48578e-015 -10.2455 -2.21022 -15.488 1.42109e-014 -9.82 -5.32907e-015 0.200215 -1.92918 0.00337231 -1.06 4.19 1.76 -9.69692 0.578483 -3.09566 -6.06 5.05374e-014 -8.88178e-016 -91.2096 5.22311 -11.3718 -2.84217e-014 -11.08 -4.4518e-015 4.43497 -0.00203568 13.2376 7.10543e-015 -9.82 -2.66454e-015 -0.133841 -1.39378 -0.00166659 2.13163e-014 4.05 4.44089e-015 0.244825 15.8044 -0.215838 -3.55271e-015 5.19 3.55271e-015 -0.192365 -2.72661 -0.126371 
17.8545 39.4603 -7.2146 0.596672 -0.00937902 -0.46068 3.43 -3.06088e-013 -4.31972e-015 3.43608 -6.52153 1.27055 -1.06581e-014 -18.47 9.76996e-015 0.761237 16.4776 5.88185 -1.10212e-014 -17.95 5.67769e-015 -5.70009 -9.29069 -0.463539 -3.43 7.72325e-014 -7.21418e-015 -6.70555 -4.27438 -7.44664 -6.12458e-015 -18.47 6.64588e-015 -1.05383 15.249 -4.1831 -1.34185e-015 -17.95 0 7.38102 -9.62562 0.622323 -3.50957e-013 4.57 -2.18512e-015 -0.380992 -0.483443 0.570082 3.55271e-015 6.57 -6.21725e-015 -0.388644 -0.459415 0.486879 1.06 4.19 1.76 10.1684 0.526616 2.41144 5.81 6.92856e-013 -8.88178e-016 97.6594 -1.0934 8.99726 -5.68434e-014 -12.08 8.14783e-015 -10.2904 -2.19023 -15.6198 1.42109e-014 -9.82 -5.32907e-015 0.144288 -1.94447 0.00246238 -1.06 4.19 1.76 -9.99202 0.587684 -3.21382 -6.06 6.21491e-014 -8.88178e-016 -90.8235 5.59926 -11.0944 -2.84217e-014 -11.08 -1.01855e-014 4.44495 -0.0664354 13.0415 7.10543e-015 -9.82 -2.66454e-015 -0.245741 -1.42648 -0.00307098 2.13163e-014 4.05 4.44089e-015 0.285432 15.9589 -0.404396 -3.55271e-015 5.19 3.55271e-015 -0.0583771 -2.69827 -0.352636 
17.8584 39.4515 -7.21656 0.613151 -0.058792 -0.44511 3.43 -1.49117e-013 -5.94584e-015 3.42405 -6.56426 1.26486 -1.06581e-014 -18.47 9.76996e-015 0.760781 16.6561 5.82535 -1.11937e-014 -17.95 5.81465e-015 -5.70392 -9.3815 -0.468405 -3.43 -2.07223e-013 -1.01305e-014 -6.74853 -4.34982 -7.48564 -4.3495e-015 -18.47 7.66674e-015 -1.0405 15.5072 -4.23275 -2.47218e-015 -17.95 0 7.39423 -9.7455 0.631236 -4.00799e-013 4.57 -2.7846e-015 -0.419336 -0.45998 0.590225 3.55271e-015 6.57 -6.21725e-015 -0.424972 -0.438153 0.502085 1.06 4.19 1.76 10.1203 0.525366 2.39249 5.81 8.00938e-013 -8.88178e-016 97.6591 -1.10292 9.14362 -5.68434e-014 -12.08 1.94057e-014 -10.213 -2.20018 -15.662 1.42109e-014 -9.82 -5.32907e-015 0.0717852 -1.89906 0.00118964 -1.06 4.19 1.76 -9.84454 0.588557 -3.21521 -6.06 7.53276e-014 -8.88178e-016 -90.9442 5.73626 -10.9761 -2.84217e-014 -11.08 -1.7006e-014 4.46615 -0.174878 13.0032 7.10543e-015 -9.82 -2.66454e-015 -0.095122 -1.29668 -0.00106749 2.13163e-014 4.05 4.44089e-015 0.389375 15.9536 -0.492147 -3.55271e-015 5.19 3.55271e-015 -0.186177 -2.64586 -0.373601 
17.8575 39.4553 -7.2201 0.619624 -0.103101 -0.476686 3.43 -8.95534e-014 -7.8265e-015 3.40368 -6.47109 1.26157 -1.06581e-014 -18.47 9.76996e-015 0.759597 16.5682 5.93749 -1.13987e-014 -17.95 5.97363e-015 -5.70454 -9.33411 -0.46608 -3.43 -2.43416e-013 -1.35305e-014 -6.76662 -4.28838 -7.51493 -2.28994e-015 -18.47 8.82254e-015 -1.01576 15.44 -4.17339 -3.7639e-015 -17.95 0 7.36495 -9.70097 0.625844 -4.48872e-013 4.57 -3.44151e-015 -0.503622 -0.46308 0.54151 3.55271e-015 6.57 -6.21725e-015 -0.497607 -0.441066 0.451301 1.06 4.19 1.76 10.3372 0.524301 2.40723 5.81 9.0722e-013 -8.88178e-016 97.5214 -0.959648 8.87281 -5.68434e-014 -12.08 3.22165e-014 -10.2671 -2.23762 -15.508 1.42109e-014 -9.82 -5.32907e-015 0.0922636 -1.99264 0.00160254 -1.06 4.19 1.76 -9.36642 0.583443 -3.13141 -6.06 8.99591e-014 -8.88178e-016 -91.3446 5.62566 -10.8502 -2.84217e-014 -11.08 -2.48836e-014 4.54089 -0.107853 13.2066 7.10543e-015 -9.82 -2.66454e-015 -0.177969 -1.10982 -0.00171749 2.13163e-014 4.05 4.44089e-015 0.564445 16.0851 -0.471924 -3.55271e-015 5.19 3.55271e-015 -0.252115 -2.94306 -0.253021 
